<svg width="66" height="102" viewBox="0 0 66 102" fill="none" xmlns="http://www.w3.org/2000/svg">
<path d="M17.8786 15.594C18.2895 16.4893 18.7021 17.4341 18.9015 18.4066C19.074 19.2484 19.1171 20.1446 18.889 20.979C18.6113 21.9942 17.9896 22.8665 17.4416 23.743C16.3735 25.4513 15.597 27.2985 16.0397 29.3466L15.955 29.3215C15.2142 28.1694 14.6034 26.8081 14.5035 25.4186C14.4376 24.5023 14.5243 23.63 14.969 22.8156C15.2568 22.2886 15.6562 21.8393 16.0376 21.3833C17.6894 19.4084 18.0754 18.1773 17.8786 15.594Z" fill="#F96D00"/>
<path d="M42.6294 11.0232C42.7125 11.154 42.5894 11.3449 42.5374 11.4916C42.2702 12.2431 42.0816 13.1403 42.1446 13.9426C42.2481 15.2598 42.9154 16.5994 43.3488 17.8359C43.8852 19.3664 44.2451 20.9676 43.839 22.5818C43.6715 23.2471 43.3805 23.8636 43.0958 24.4824L42.857 23.4634C42.5995 22.6079 42.3099 21.8198 41.859 21.0491C41.4743 20.3917 41.0095 19.7845 40.6383 19.1189C39.8686 17.7391 39.6233 16.1682 40.0529 14.6249C40.4653 13.1427 41.2922 11.7854 42.6294 11.0232Z" fill="#F96D00"/>
<path d="M37.6236 0.731445L37.6807 0.85284C37.4607 1.13866 37.1506 1.36235 36.8767 1.5936L35.567 2.7199C35.026 3.19255 34.5312 3.72619 34.0541 4.26524C32.165 6.39927 30.4672 8.86737 29.2708 11.4822C28.6377 12.8663 28.1547 14.3184 27.7548 15.7886C27.1436 18.0359 26.7992 20.4132 27.0701 22.7454C27.2105 23.9534 27.4408 25.1586 27.7617 26.3303L28.9886 30.3662C30.3001 35.1145 30.0451 40.4395 28.7443 45.1637L27.5483 42.862C26.5949 41.2058 25.482 39.6221 24.3252 38.1098C23.7731 37.3878 23.2226 36.6447 22.5703 36.0129C23.2734 40.2576 21.6699 44.8227 19.7766 48.5458C18.8183 50.4304 17.7266 52.2218 16.8608 54.1581C16.2473 55.5299 15.8101 56.95 15.4206 58.4022C13.2592 56.641 11.9307 54.3277 11.2668 51.6125C11.039 50.6808 10.9188 49.734 10.809 48.782C10.5984 46.9568 10.9113 44.9981 11.2645 43.213C11.3906 42.5751 11.6271 41.8652 11.659 41.2228L12.0816 39.8869C11.7662 40.2309 11.4842 40.7597 11.2616 41.1748C10.7969 41.506 10.5676 42.0239 10.2813 42.5084C8.77529 45.0565 7.79332 47.9969 7.27813 50.9236C6.65111 54.4856 6.52416 58.1384 7.03998 61.7233C7.21187 62.9175 7.43857 64.1365 7.79978 65.2871C8.4113 67.2352 9.31365 69.0178 10.4535 70.6954C10.9292 71.3956 11.476 72.0287 12.067 72.6279C12.3479 72.9125 12.6573 73.2368 12.9922 73.451C12.4218 75.2318 12.0471 77.1123 11.9989 78.9895C11.9973 79.7888 11.9723 80.6104 12.0514 81.4063C12.3491 84.4034 13.6692 86.9846 15.7283 89.1053L16.0944 89.4603L16.0318 89.4399C15.6734 89.3184 15.3859 89.0841 15.0766 88.8693C14.1788 88.2459 13.4424 87.5879 12.6481 86.8402C13.037 88.0428 13.3674 89.2492 13.8619 90.4151C14.1719 91.146 14.5752 91.8176 14.9036 92.5343C16.5793 95 18.5776 97.1206 21.1302 98.6479C22.5532 99.4993 24.1064 100.131 25.6691 100.655L27.3823 101.147C27.8436 101.261 28.4478 101.319 28.8428 101.583C28.0195 101.556 27.1527 101.353 26.3472 101.191C22.4835 100.414 18.7745 98.99 15.3255 97.053C14.2261 96.4356 13.1135 95.7825 12.0889 95.041C5.93896 90.5906 1.57277 84.2744 0.297596 76.6005C-0.256822 73.2639 -0.023943 69.9601 0.890689 66.7171C1.02117 66.2547 1.15576 65.5041 1.42668 65.1132C1.51203 65.8852 1.66353 66.6246 1.86783 67.3727C2.79388 70.7643 4.89859 73.8194 7.67666 75.8863C8.00469 76.1304 8.3134 76.4235 8.66619 76.6263L7.53992 75.0208C6.56808 73.5608 5.82508 72.0169 5.18286 70.3805C3.24152 65.4336 2.74067 60.0892 3.72416 54.8536C5.00151 48.0534 8.74282 40.7576 14.4403 36.804C13.4796 38.169 13.0122 39.8654 12.7063 41.4981C12.0828 44.8275 12.411 48.4751 14.3071 51.3286L17.2463 45.1082C19.348 40.1397 19.7299 33.8677 17.7693 28.7925C19.7135 30.0293 21.554 31.5128 23.1899 33.1495L25.1347 35.2638C25.3535 34.1832 25.2934 33.0055 25.1856 31.9125C24.9625 29.6493 24.3017 27.5911 23.7606 25.4073C22.9268 22.0427 23.0735 18.5385 24.1765 15.2536C25.3939 11.6279 27.6296 8.60339 30.322 5.98593C32.5279 3.84132 34.8772 2.09402 37.6236 0.731445Z" fill="#E53500"/>
<path d="M14.9035 92.5343C14.1211 92.4239 13.2639 91.7264 12.6239 91.2746C10.3991 89.7044 8.5409 87.5936 7.01538 85.3268C6.34254 84.327 5.69375 83.2682 5.19988 82.1619C4.11392 79.7291 3.46165 77.2083 2.99603 74.5902C5.12551 77.8178 8.24959 79.7956 11.9401 80.616C12.018 80.2743 11.953 79.7901 11.9514 79.4332C11.9506 79.28 11.9282 79.1297 11.9988 78.9896C11.9972 79.7888 11.9722 80.6105 12.0513 81.4063C12.349 84.4034 13.6691 86.9846 15.7281 89.1054L16.0943 89.4603L16.0317 89.4399C15.6733 89.3184 15.3858 89.0841 15.0765 88.8694C14.1787 88.2459 13.4423 87.588 12.648 86.8402C13.0369 88.0429 13.3673 89.2492 13.8618 90.4151C14.1719 91.146 14.5752 91.8176 14.9035 92.5343Z" fill="#F96D00"/>
<path d="M37.6238 0.731415L39.1244 0C36.1694 3.98988 34.94 8.72659 35.6054 13.692C35.9721 16.4282 36.7629 19.0773 37.8565 21.5974C38.3446 22.7224 38.8632 23.8221 39.5023 24.867C40.5602 26.5969 41.8139 28.1158 43.0442 29.7125C45.6421 33.084 48.0831 36.4559 49.502 40.5414C49.7611 41.2875 50.0238 42.0289 50.1763 42.8065C50.1958 42.9063 50.1851 42.8665 50.224 42.9627C51.3644 39.8114 51.6553 36.1769 51.5338 32.8408C51.4957 31.7924 51.4479 30.7234 51.2894 29.6858C52.2395 31.0001 52.9914 32.4496 53.6603 33.9295C54.9199 36.7168 55.7765 39.5909 55.8093 42.6841C55.8209 43.7851 55.6917 44.9068 55.5324 45.9947C55.3443 47.28 55.0309 48.5651 54.6639 49.8089C54.2411 51.2418 53.756 52.6358 53.5402 54.1242C53.3655 55.3299 53.3982 56.587 53.5676 57.7898C53.614 58.1187 53.6297 58.8256 53.7801 59.0928L53.8107 59.1348C53.8828 57.9316 54.2082 56.8442 54.5422 55.6968C55.6445 51.9091 57.5743 48.5974 60.1743 45.6843C60.8941 44.8779 61.6858 44.1351 62.4692 43.3944C62.3448 43.9108 62.095 44.4472 61.9223 44.9556C60.8423 48.6916 60.4211 52.5118 61.0619 56.3791C61.4909 58.9689 62.3182 61.4409 63.2261 63.8897C63.9753 65.9106 64.8802 67.8855 65.2947 70.0204C65.687 72.0409 65.7044 74.0898 65.5247 76.1343C64.6951 85.5666 58.1536 93.081 50.3002 97.4585C48.2916 98.578 46.1733 99.3915 43.9927 100.086C43.3581 100.289 42.7051 100.528 42.0509 100.651C41.3099 100.894 40.5242 101.04 39.7615 101.197C36.6909 101.829 33.4943 101.994 30.3737 101.74C29.9243 101.703 29.2993 101.732 28.8795 101.602L28.8431 101.583C28.4482 101.319 27.8439 101.261 27.3827 101.147L25.6695 100.655C24.1067 100.131 22.5536 99.4993 21.1305 98.6479C18.5779 97.1206 16.5797 95 14.9039 92.5343C14.5756 91.8176 14.1723 91.146 13.8622 90.415C13.3677 89.2492 13.0374 88.0429 12.6485 86.8401C13.4427 87.5879 14.1791 88.2459 15.077 88.8693C15.3862 89.084 15.6737 89.3184 16.0321 89.4399L16.0947 89.4603L15.7286 89.1053C13.6696 86.9846 12.3495 84.4034 12.0517 81.4063C11.9726 80.6104 11.9976 79.7888 11.9993 78.9895C12.0474 77.1123 12.4221 75.2318 12.9926 73.451C12.6577 73.2368 12.3482 72.9125 12.0674 72.6279C11.4763 72.0287 10.9296 71.3955 10.4538 70.6954C9.31399 69.0178 8.41163 67.2352 7.80011 65.2871C7.43891 64.1365 7.21218 62.9175 7.04032 61.7233C6.5245 58.1384 6.65142 54.4856 7.27847 50.9236C7.79366 47.9969 8.77563 45.0565 10.2816 42.5084C10.568 42.0239 10.7972 41.506 11.2619 41.1748C11.4845 40.7597 11.7665 40.2308 12.0819 39.8869L11.6593 41.2228C11.6274 41.8652 11.391 42.5751 11.2648 43.213C10.9117 44.998 10.5988 46.9568 10.8093 48.782C10.9191 49.7339 11.0394 50.6808 11.2672 51.6124C11.931 54.3277 13.2595 56.641 15.421 58.4022C15.8104 56.95 16.2477 55.5299 16.8611 54.158C17.727 52.2218 18.8186 50.4304 19.7769 48.5458C21.6702 44.8227 23.2737 40.2576 22.5706 36.0129C23.223 36.6447 23.7734 37.3877 24.3256 38.1097C25.4823 39.6221 26.5952 41.2058 27.5487 42.862L28.7447 45.1637C30.0454 40.4395 30.3005 35.1144 28.9889 30.3662L27.762 26.3303C27.4411 25.1586 27.2109 23.9534 27.0705 22.7454C26.7996 20.4132 27.144 18.0358 27.7551 15.7886C28.155 14.3184 28.638 12.8663 29.2712 11.4821C30.4675 8.86734 32.1653 6.39924 34.0544 4.26521C34.5315 3.72616 35.0264 3.19255 35.5673 2.71987L36.877 1.59357C37.1509 1.36232 37.461 1.13863 37.6811 0.85281L37.6238 0.731415Z" fill="url(#paint0_linear_31_162)"/>
<path d="M11.2617 41.1747C11.4843 40.7596 11.7663 40.2308 12.0817 39.8868L11.6591 41.2227L11.6317 41.2616L11.5868 41.327C11.388 41.6092 11.2484 41.8965 11.1245 42.2188C10.7957 43.0736 10.6076 44.0404 10.4157 44.9385C9.61202 48.6994 9.53012 52.475 11.0621 56.062C10.5056 55.505 10.0684 54.6332 9.73359 53.9164C8.16336 50.5547 8.7863 46.8694 10.1482 43.5516C10.3363 43.0934 10.534 42.6239 10.7646 42.186C10.9326 41.8671 11.1288 41.5727 11.2447 41.2275L11.2617 41.1747Z" fill="#F96D00"/>
<path d="M52.2741 32.7302C52.4039 32.8401 52.5007 33.0945 52.5674 33.2536C52.9185 34.0899 53.118 35.0043 53.3227 35.8881C53.9499 38.5968 54.4436 41.5979 54.143 44.3851C54.0504 45.2444 53.778 46.0576 53.4887 46.8634C53.3918 47.0398 53.2549 47.3638 53.0758 47.4511L52.9912 47.3687L53.0215 47.1482C53.0745 46.7847 53.0202 46.3356 53.0243 45.9575C53.0313 45.2898 53.073 44.6202 53.0453 43.9517L52.8929 41.2235L52.7077 35.1335C52.6773 34.6186 52.7365 33.8402 52.461 33.3943C52.392 33.2828 52.4097 33.3303 52.3706 33.209L52.3456 33.1235C52.2901 32.9758 52.2786 32.8891 52.2741 32.7302Z" fill="#F9A301"/>
<path d="M23.6632 43.8271C24.0362 44.0531 24.3118 44.404 24.5773 44.7486C25.2923 45.6763 25.8579 46.7282 26.1452 47.8762C26.637 49.8417 26.5077 52.179 25.475 53.9467C24.8194 55.0688 23.9034 55.9866 23.1769 57.0542C22.3774 58.2292 21.902 59.5726 21.6632 60.9761L21.3294 60.5605C21.4354 60.4113 21.3936 60.1107 21.4032 59.9257C21.4539 58.9558 21.61 57.9641 21.9414 57.0499C22.5813 55.2836 23.979 53.9901 24.7296 52.2756C25.3339 50.8951 25.3977 49.3672 25.2526 47.8827C25.1895 47.2365 25.0771 46.5416 24.8119 45.9465C24.4969 45.2395 23.9441 44.5937 23.6819 43.8801L23.6632 43.8271Z" fill="#F96D00"/>
<path d="M21.3291 60.5608C21.0515 60.1925 20.8193 59.7494 20.6345 59.3253C19.5084 56.7404 19.8989 53.6416 21.4065 51.3101C22.1113 50.2202 23.0028 49.1913 23.4575 47.9539C23.6283 47.4892 23.7492 47.0335 23.8216 46.5422C24.0053 45.2961 23.6813 44.2634 23.0609 43.2028L23.6629 43.8274L23.6816 43.8803C23.9438 44.5939 24.4966 45.2398 24.8116 45.9467C25.0767 46.5419 25.1891 47.2367 25.2523 47.883C25.3973 49.3675 25.3335 50.8954 24.7292 52.2759C23.9787 53.9904 22.581 55.2839 21.941 57.0501C21.6097 57.9644 21.4535 58.9561 21.4029 59.926C21.3933 60.1109 21.4351 60.4115 21.3291 60.5608Z" fill="url(#paint1_linear_31_162)"/>
<path d="M47.8679 49.1388C47.8972 49.1734 47.9441 49.1983 47.9558 49.2425C47.9773 49.3242 47.9214 49.5881 47.9107 49.6834C47.8717 50.0324 47.8344 50.3929 47.8623 50.7444C47.9098 51.3429 48.0971 51.939 48.3649 52.4708C48.6938 53.124 49.1287 53.721 49.5284 54.3293C50.4471 55.7275 51.2148 57.1505 51.1858 58.8845C51.1479 61.1514 50.0732 63.1028 48.51 64.6346L47.6061 65.3646C47.9155 64.4824 48.0684 63.5636 48.1789 62.6355C48.2784 61.8016 48.3491 60.9015 48.2427 60.0639C48.1517 59.3463 48.0393 58.6646 47.7944 57.9814C47.2978 56.5964 46.4676 55.3295 46.3194 53.8297C46.1409 52.0236 46.7599 50.5149 47.8679 49.1388Z" fill="#F96D00"/>
<path d="M47.2297 51.2369C47.4612 51.4507 47.354 52.297 47.5342 52.6204L48.3547 54.1894C48.7269 54.8329 49.1752 55.4513 49.4787 56.1319C50.2391 57.8374 49.8696 59.6154 49.2606 61.2985L48.9834 62.0716C48.9765 60.7432 48.9052 59.4408 48.572 58.1489C48.3002 57.0954 47.8177 56.1829 47.464 55.1697C47.198 54.4073 47.0347 53.5687 47.0254 52.7587C47.022 52.4576 47.0057 52.1416 47.0606 51.8455L47.0739 51.7781C47.1099 51.5845 47.1562 51.4197 47.2297 51.2369Z" fill="url(#paint2_linear_31_162)"/>
<path d="M53.8105 59.1348C53.8825 57.9316 54.208 56.8442 54.5419 55.6969C55.6443 51.9091 57.5741 48.5974 60.174 45.6844C60.8938 44.878 61.6855 44.1351 62.4689 43.3944C62.3446 43.9108 62.0948 44.4472 61.9221 44.9557C61.4069 45.274 61.1694 45.9693 60.8679 46.4888C59.0835 49.5639 57.5314 52.9532 56.6887 56.439C55.9028 59.6904 55.8418 62.9938 55.9302 66.3216C55.0183 64.9252 54.2295 63.4355 53.9306 61.7672C53.7814 60.9342 53.773 60.0361 53.8152 59.1943L53.8105 59.1348Z" fill="#E53500"/>
<path d="M59.3803 51.1163C59.4708 51.261 59.433 53.7483 59.4495 54.1478C59.4984 55.3355 59.6264 56.5034 59.8335 57.6732C60.0786 59.0572 60.5281 60.3703 61.0966 61.6461C62.4322 64.6433 64.247 67.3962 64.2835 70.8227C64.3149 73.749 63.1287 76.9731 61.1283 79.0718C60.7311 79.4443 60.3459 79.7555 59.8919 80.0566C60.2354 79.0667 60.5514 78.0259 60.6643 76.9789C61.0327 73.5631 59.4035 70.1356 58.5791 66.8988C57.5506 62.8599 57.5366 58.5814 58.3266 54.4964C58.5454 53.3654 58.8026 52.1187 59.3803 51.1163Z" fill="#F96D00"/>
<path d="M58.906 55.5873C59.0335 55.9405 59.0111 56.4015 59.0721 56.7786L59.6518 59.7222C59.8531 60.5366 60.0681 61.3583 60.3417 62.1508L61.8777 66.1784C62.9347 69.1168 63.5732 72.4096 62.2312 75.3787L61.7866 76.1004C61.8167 74.9169 61.6321 73.8319 61.4059 72.6778L59.8797 66.4571C59.2707 63.868 58.9304 61.1641 58.8211 58.5049L58.8002 56.5802C58.8126 56.2445 58.8116 55.9118 58.906 55.5873Z" fill="#F9A301"/>
<path d="M40.4449 50.972C40.6418 50.7761 40.6279 50.2941 40.6721 50.0132C40.8457 48.911 41.0189 47.8285 41.0332 46.709C41.0841 42.7405 39.1327 38.7092 36.8856 35.5743C35.5735 33.744 34.092 32.0198 32.9165 30.0906C31.104 27.116 29.9612 23.9363 29.7036 20.4286C29.5514 18.3579 29.6096 16.2638 30.1722 14.2556C30.4598 13.2289 30.8824 12.2402 31.3052 11.2659C32.1717 9.26847 33.1689 7.37983 34.2657 5.50623C33.7806 7.4118 33.4039 9.46103 33.3526 11.4346C33.3215 12.6309 33.4451 13.8102 33.6033 14.9933C33.7085 15.7808 33.8043 16.5531 33.9691 17.3314C34.4686 19.6909 35.4273 22.1542 36.6274 24.2328C37.2989 25.3962 38.0892 26.4754 38.8477 27.5788L41.1523 31.178C43.1709 34.6162 44.5764 38.4909 45.1443 42.4636C45.2982 43.5395 45.4439 44.6257 45.4576 45.715C45.4652 46.3235 45.4126 46.9362 45.3773 47.5436C45.3087 48.7225 45.1905 49.9117 44.9079 51.0594C44.5647 52.4537 44.1426 53.8231 43.645 55.1673C43.3285 56.0221 42.8986 56.9981 42.3248 57.7025C42.1011 57.9772 41.9993 58.2682 41.6998 58.4798L41.6728 58.5123L40.4449 50.972Z" fill="#F96D00"/>
<path d="M32.7394 11.3159C32.7136 12.1147 32.6398 12.898 32.6602 13.7001C32.7532 17.3521 33.6867 21.2069 35.2235 24.5008C36.1158 26.4133 37.2769 28.0838 38.3552 29.8796C40.145 32.8603 41.5963 35.9567 42.4667 39.3498C42.7142 40.3145 42.9584 41.2901 43.0837 42.2801C42.9456 42.0441 42.8465 41.7844 42.7387 41.5329C41.6272 39.2653 40.3229 37.1389 38.8289 35.1132C37.122 32.7989 35.2395 30.598 33.917 28.0121C33.127 26.4672 32.4167 24.7034 32.022 23.0053C31.3494 20.1118 31.3994 17.1253 31.9518 14.218C32.1382 13.2372 32.4487 12.2681 32.7394 11.3159Z" fill="#F9A301"/>
<path d="M12.9926 73.451C14.21 69.8299 16.0212 66.4389 18.183 63.3234C18.7388 62.5225 19.2971 61.697 19.9367 60.9641C19.8235 61.5184 19.7785 62.0958 19.7168 62.658C19.5117 64.5244 19.5286 66.3063 19.8109 68.1659C19.9749 69.2458 20.2069 70.3198 20.6844 71.3039C20.9896 70.102 21.248 68.9169 21.629 67.7336C22.8873 63.8254 24.7975 60.0409 26.751 56.4544C28.485 53.271 30.3625 50.1781 31.7189 46.7964C33.3307 42.7784 34.4915 37.7978 32.7624 33.6178L32.7403 33.5654C33.2508 34.0278 33.7039 34.8066 34.0911 35.3845C35.0422 36.8046 35.8267 38.2999 36.575 39.839C38.3026 43.3928 39.6005 47.0981 40.4453 50.9721L41.6733 58.5125L43.8021 67.1207C44.25 68.8497 44.7525 70.5695 45.0459 72.3353C45.3753 74.3166 45.4796 76.2393 45.4769 78.2428C46.2563 77.6165 47.0208 77.0323 47.6911 76.2781C49.2829 74.4866 50.1777 71.8603 50.4607 69.491C50.6011 68.3166 50.6388 67.1872 50.5232 66.008C50.4752 65.5185 50.3209 64.9712 50.327 64.4893C51.4875 66.3155 52.6322 68.1407 53.5379 70.1188C55.6469 74.726 56.3132 79.9346 55.2846 84.9239L54.5266 87.7422C53.8545 87.8901 53.2263 88.4217 52.622 88.7593C51.5409 89.3636 50.4029 89.8578 49.2681 90.3453C48.7923 90.5496 48.0947 90.9058 47.5853 90.9267C49.496 87.7352 50.7434 84.0305 50.9957 80.2834C51.0609 79.314 51.0293 78.3303 51.0207 77.3589C50.6011 78.3499 50.259 79.3262 49.6776 80.2378C48.3456 82.3264 46.3342 83.7043 44.1684 84.7626C43.049 85.3096 41.9321 85.7682 40.7145 86.0344C41.418 84.4836 42.074 82.7891 42.4806 81.1281C42.5681 80.6179 42.7475 80.2327 42.6686 79.7005C42.5126 78.6481 42.2826 77.6503 41.8909 76.6605C41.2637 75.0749 40.2818 73.5786 39.4244 72.1147C36.9668 67.9187 34.7741 62.8854 35.0859 57.8808C35.1611 56.6744 35.4383 55.512 35.6921 54.3369C35.5199 54.5529 35.3951 54.8739 35.2442 55.1123L34.3197 56.4304L29.197 63.3794L27.1341 66.7773C26.2851 68.301 25.4946 69.863 24.985 71.5452C24.1275 74.3764 24.0541 77.461 24.5839 80.3616C24.7651 81.4601 25.0434 82.6812 25.5129 83.6933C24.5132 83.0666 23.5188 82.4348 22.6032 81.6824C21.1764 80.5099 19.8601 78.9508 18.9354 77.3382C18.5007 76.5803 18.126 75.7883 17.8737 74.9468C17.8472 74.8584 17.5748 73.9577 17.5481 73.9467C17.2845 74.8828 17.1684 75.8072 17.0585 76.772C16.5061 81.6218 17.5801 86.3482 19.2511 90.8661C18.4465 90.5752 17.6433 90.2719 16.8701 89.9013C16.6046 89.7741 16.3702 89.5537 16.0949 89.4604L15.7288 89.1055C13.6697 86.9847 12.3496 84.4035 12.0519 81.4064C11.9728 80.6106 11.9978 79.7889 11.9994 78.9897C12.0475 77.1123 12.4222 75.2319 12.9926 73.451Z" fill="url(#paint3_linear_31_162)"/>
<path d="M24.5834 80.3612C24.0536 77.4607 24.1269 74.3761 24.9845 71.5449C25.4941 69.8626 26.2846 68.3007 27.1336 66.777L29.1964 63.379L34.3192 56.4301L35.2436 55.112C35.3946 54.8736 35.5194 54.5526 35.6916 54.3365C35.4377 55.5117 35.1606 56.674 35.0853 57.8805C34.7735 62.885 36.9662 67.9183 39.4238 72.1143C40.2813 73.5783 41.2631 75.0746 41.8904 76.6601C42.2821 77.65 42.512 78.6478 42.6681 79.7002C42.7469 80.2323 42.5675 80.6176 42.48 81.1277C42.0735 82.7887 41.4174 84.4833 40.7139 86.0341C41.9316 85.7678 43.0485 85.3092 44.1678 84.7623C46.3337 83.704 48.345 82.326 49.677 80.2374C50.2585 79.3258 50.6006 78.3496 51.0202 77.3586C51.0287 78.3299 51.0604 79.3136 50.9952 80.283C50.7428 84.0301 49.4954 87.7349 47.5848 90.9264C48.0942 90.9054 48.7918 90.5493 49.2675 90.345C50.4023 89.8574 51.5403 89.3633 52.6215 88.759C53.2257 88.4214 53.854 87.8897 54.5261 87.7418C54.0968 88.7848 53.6802 89.8256 53.14 90.8157C50.8446 95.0233 47.2021 98.432 42.8275 100.248C42.5861 100.348 42.2205 100.446 42.0505 100.651C41.3095 100.894 40.5238 101.04 39.7611 101.197C36.6905 101.829 33.4939 101.993 30.3733 101.74C29.9239 101.703 29.299 101.731 28.8791 101.602L28.8427 101.583C28.4478 101.318 27.8435 101.26 27.3823 101.147L25.6691 100.655C24.1063 100.131 22.5532 99.4991 21.1302 98.6477C18.5775 97.1204 16.5793 94.9997 14.9035 92.5341C14.5752 91.8173 14.1719 91.1457 13.8619 90.4148C13.3674 89.249 13.037 88.0426 12.6481 86.8399C13.4424 87.5877 14.1788 88.2456 15.0766 88.8691C15.3859 89.0838 15.6734 89.3181 16.0318 89.4396L16.0944 89.46C16.3697 89.5534 16.6041 89.7737 16.8696 89.9009C17.6427 90.2715 18.4459 90.5749 19.2506 90.8657C17.5796 86.3479 16.5056 81.6214 17.0579 76.7716C17.1678 75.8068 17.284 74.8825 17.5476 73.9463C17.5743 73.9573 17.8467 74.8581 17.8732 74.9465C18.1255 75.788 18.5001 76.58 18.9348 77.3379C19.8596 78.9504 21.1758 80.5095 22.6026 81.682C23.5183 82.4344 24.5126 83.0663 25.5124 83.6929C25.0429 82.6808 24.7645 81.4597 24.5834 80.3612Z" fill="url(#paint4_linear_31_162)"/>
<path d="M28.724 83.7959C28.5187 82.2609 28.6025 80.7237 28.8362 79.1973C29.5139 74.771 31.5255 70.7159 33.2141 66.6272C33.148 68.9711 33.5576 71.2336 34.319 73.4407L35.2756 75.8988C35.7742 77.281 36.059 78.7125 35.8767 80.189C35.7744 81.0173 35.5144 81.8206 35.2656 82.6118L34.5646 84.1012L35.4869 83.359C35.6132 83.2525 35.8077 83.1188 35.8993 82.9861C36.2539 82.7225 36.6144 82.2932 36.8924 81.9449C38.1636 80.3523 38.599 78.5516 39.1331 76.6229L39.5384 81.0528C39.7099 83.9742 39.6728 87.3927 38.3256 90.0559C37.9511 90.796 37.4421 91.4705 36.9623 92.1417L37.0138 92.1146C37.6062 91.8069 38.2477 91.5796 38.8615 91.3203C40.7307 90.5308 42.7242 89.6777 43.9655 87.9622C44.1956 87.6442 44.3594 87.2828 44.5296 86.9292C44.5291 87.3172 44.3805 87.7073 44.2692 88.0754C43.8278 89.5351 43.1366 91.01 42.2829 92.2663L42.2568 92.2647C41.979 92.2484 41.6951 92.3226 41.4214 92.3679L39.9783 92.5936C38.5543 92.7909 37.084 92.9411 35.6493 93.002C32.9757 93.1156 30.2426 93.11 27.5793 92.8213L25.2121 92.4929C24.7534 92.4163 24.2893 92.2967 23.8271 92.2567L23.7828 92.2533L23.7453 92.2312C22.1503 89.7055 21.0489 86.9127 20.4392 83.9776C20.7474 84.5724 21.005 85.184 21.3551 85.7569C22.4029 87.4718 24.1066 88.8321 25.8524 89.7512C26.9814 90.3456 28.056 90.8503 29.1094 91.584C27.9664 90.0726 27.29 88.1691 26.88 86.3205C26.6232 85.163 26.4545 83.919 26.5255 82.7309C26.9945 83.7969 27.5967 84.7602 28.3578 85.635C28.8191 86.1652 29.3225 86.6425 29.7626 87.1946C29.3049 86.0835 28.9361 84.9842 28.724 83.7959Z" fill="url(#paint5_linear_31_162)"/>
<path d="M14.9036 92.534C14.5752 91.8173 14.1719 91.1457 13.8619 90.4147C13.3674 89.2489 13.037 88.0426 12.6481 86.8398C13.4424 87.5876 14.1788 88.2456 15.0766 88.869C15.3859 89.0837 15.6734 89.3181 16.0318 89.4396L16.0944 89.46C16.3697 89.5533 16.6041 89.7737 16.8696 89.9009C17.6427 90.2715 18.4459 90.5748 19.2506 90.8657L19.3078 90.9444L23.7454 92.2308L23.7829 92.2529L23.8272 92.2563C24.2895 92.2963 24.7536 92.4159 25.2122 92.4925L27.5794 92.8209C30.2427 93.1097 32.9759 93.1152 35.6494 93.0017C37.0841 92.9407 38.5544 92.7906 39.9784 92.5933L41.4215 92.3675C41.6952 92.3222 41.9792 92.248 42.257 92.2643L42.283 92.2659L43.0456 92.1395L43.5844 92.0289L43.723 92.0081L46.2206 91.4015L46.4438 91.3475C46.6889 91.2681 46.9626 91.1721 47.2173 91.1356C47.408 91.1083 47.4452 91.0554 47.5849 90.9263C48.0942 90.9054 48.7918 90.5492 49.2676 90.3449C50.4024 89.8574 51.5404 89.3632 52.6215 88.7589C53.2258 88.4213 53.854 87.8897 54.5261 87.7418C54.0969 88.7847 53.6802 89.8255 53.14 90.8156C50.8446 95.0233 47.2021 98.4319 42.8275 100.248C42.5861 100.348 42.2205 100.446 42.0506 100.651C41.3096 100.894 40.5239 101.04 39.7612 101.197C36.6905 101.829 33.494 101.993 30.3733 101.74C29.924 101.703 29.299 101.731 28.8792 101.602L28.8428 101.583C28.4479 101.318 27.8435 101.26 27.3824 101.146L25.6691 100.655C24.1064 100.131 22.5533 99.499 21.1302 98.6476C18.5775 97.1203 16.5793 94.9996 14.9036 92.534Z" fill="#E88F00"/>
<path d="M19.3084 90.9448L23.746 92.2313L23.7835 92.2533C24.0751 92.8823 24.4929 93.4848 24.8793 94.0569C25.834 95.4707 26.8821 96.7553 28.021 98.0183C28.5662 98.6229 29.0989 99.2533 29.6879 99.8134C30.0624 100.169 30.45 100.517 30.8567 100.834C31.1284 101.046 31.4558 101.245 31.6925 101.495C31.2135 101.478 30.622 101.149 30.1732 100.972C25.6621 99.1879 21.2942 95.517 19.3084 90.9448Z" fill="#F9A301"/>
<path d="M23.7828 92.2534L23.8271 92.2568C24.2893 92.2968 24.7534 92.4164 25.2121 92.493L27.5793 92.8214C30.2426 93.1102 32.9757 93.1157 35.6493 93.0022C37.084 92.9412 38.5543 92.7911 39.9783 92.5938L41.4214 92.368C41.6951 92.3228 41.979 92.2486 42.2568 92.2649C42.101 92.7934 41.5504 93.4066 41.2162 93.8586C39.0427 96.7992 36.3113 99.6142 33.1135 101.374C32.7879 101.554 32.4533 101.672 32.0926 101.752L31.6917 101.495C31.4551 101.245 31.1277 101.046 30.856 100.834C30.4493 100.517 30.0617 100.169 29.6871 99.8134C29.0981 99.2534 28.5655 98.623 28.0202 98.0184C26.8814 96.7554 25.8333 95.4707 24.8786 94.0569C24.4921 93.4849 24.0743 92.8824 23.7828 92.2534Z" fill="#EEBA24"/>
<defs>
<linearGradient id="paint0_linear_31_162" x1="37.2614" y1="100.339" x2="34.0054" y2="0.478342" gradientUnits="userSpaceOnUse">
<stop stop-color="#EC4000"/>
<stop offset="1" stop-color="#FD5F00"/>
</linearGradient>
<linearGradient id="paint1_linear_31_162" x1="25.6517" y1="57.7214" x2="19.1886" y2="46.9716" gradientUnits="userSpaceOnUse">
<stop stop-color="#FB7200"/>
<stop offset="1" stop-color="#FC9A01"/>
</linearGradient>
<linearGradient id="paint2_linear_31_162" x1="49.4325" y1="56.2173" x2="47.6315" y2="56.7846" gradientUnits="userSpaceOnUse">
<stop stop-color="#FC8F01"/>
<stop offset="1" stop-color="#FCAE01"/>
</linearGradient>
<linearGradient id="paint3_linear_31_162" x1="33.7971" y1="90.8303" x2="34.2358" y2="34.0682" gradientUnits="userSpaceOnUse">
<stop stop-color="#FE9400"/>
<stop offset="1" stop-color="#FBC265"/>
</linearGradient>
<linearGradient id="paint4_linear_31_162" x1="32.835" y1="93.3657" x2="37.8388" y2="54.7388" gradientUnits="userSpaceOnUse">
<stop stop-color="#FFAA00"/>
<stop offset="1" stop-color="#FEF07F"/>
</linearGradient>
<linearGradient id="paint5_linear_31_162" x1="32.6333" y1="92.9654" x2="32.1001" y2="67.2566" gradientUnits="userSpaceOnUse">
<stop stop-color="#FEC95A"/>
<stop offset="1" stop-color="#FFFB9B"/>
</linearGradient>
</defs>
</svg>
