<svg width="51" height="55" viewBox="0 0 51 55" fill="none" xmlns="http://www.w3.org/2000/svg">
<path d="M13.9875 21.3448C13.9875 21.3448 15.9758 31.5919 29.8961 39.7639C29.8961 39.7639 32.9459 35.0949 37.8512 36.6512L47.132 39.7639C47.132 39.7639 52.4342 41.7089 49.3861 47.1569C46.3362 52.6049 43.5522 53.2538 43.5522 53.2538C43.5522 53.2538 36.6585 57.404 24.3279 50.3997C12.8997 43.9072 -3.65587 24.0393 0.74404 9.18742C1.41032 6.93709 2.8513 4.99731 4.76096 3.58152C7.32991 1.67646 11.3188 -0.483651 14.3162 1.55154C15.3445 2.24903 15.9898 3.36986 16.2591 4.56529L18.4958 14.4671C18.4958 14.4671 20.0872 18.2287 13.9875 21.3413V21.3448Z" fill="#03EE61"/>
</svg>
