<svg width="64" height="52" viewBox="0 0 64 52" fill="none" xmlns="http://www.w3.org/2000/svg">
<path d="M61.9731 0.44043C61.9731 0.44043 62.0044 0.446699 62.017 0.44983C62.0013 0.44983 61.9856 0.44356 61.9731 0.44043Z" fill="#3ABAFF"/>
<path d="M49.2149 51.7513C49.2149 51.7513 49.1867 51.7451 49.1742 51.7419C49.1867 51.7451 49.2024 51.7482 49.2149 51.7513Z" fill="#3ABAFF"/>
<path d="M49.526 51.8138C49.526 51.8138 49.5066 51.8138 49.4969 51.8105C49.5066 51.8105 49.5163 51.8106 49.526 51.8138Z" fill="#3ABAFF"/>
<path d="M48.5413 51.5102C48.5256 51.5039 48.5068 51.4945 48.4911 51.4851C48.5068 51.4945 48.5256 51.5008 48.5413 51.5102Z" fill="#3ABAFF"/>
<path d="M48.1778 51.3163C48.1778 51.3163 48.1465 51.2975 48.134 51.2881C48.1496 51.2975 48.1653 51.3069 48.1778 51.3163Z" fill="#3ABAFF"/>
<path d="M60.1621 0.625249C60.1907 0.618901 60.2193 0.609376 60.2478 0.603027C60.2161 0.609376 60.1875 0.618901 60.1621 0.625249Z" fill="#3ABAFF"/>
<path d="M47.7997 51.0663C47.7997 51.0663 47.7803 51.0502 47.7674 51.0437C47.7771 51.0502 47.7868 51.0598 47.7997 51.0663Z" fill="#3ABAFF"/>
<path d="M59.9585 0.681442C59.9992 0.668921 60.0556 0.653259 60.1277 0.631348C60.0587 0.650129 59.9992 0.665791 59.9585 0.681442Z" fill="#3ABAFF"/>
<path d="M59.9083 0.700371C59.9083 0.700371 59.931 0.693903 59.9439 0.690674C59.931 0.693903 59.918 0.700371 59.9083 0.700371Z" fill="#3ABAFF"/>
<path d="M59.8833 0.70675C59.8833 0.70675 59.89 0.706747 59.8968 0.703369C59.89 0.703369 59.8833 0.70675 59.8833 0.70675Z" fill="#3ABAFF"/>
<path d="M61.1961 0.434185C61.2399 0.431055 61.2838 0.427935 61.3308 0.424805C61.2869 0.424805 61.2431 0.431055 61.1961 0.434185Z" fill="#3ABAFF"/>
<path d="M61.3872 0.418357C61.4467 0.418357 61.5062 0.412109 61.5658 0.412109C61.5062 0.412109 61.4467 0.412096 61.3872 0.418357Z" fill="#3ABAFF"/>
<path d="M60.4222 0.559371C60.4692 0.54998 60.5193 0.537467 60.5726 0.528076C60.5225 0.537467 60.4723 0.54998 60.4222 0.559371Z" fill="#3ABAFF"/>
<path d="M60.6164 0.51874C60.6572 0.51248 60.6948 0.503087 60.7386 0.496826C60.6979 0.503087 60.6572 0.51248 60.6164 0.51874Z" fill="#3ABAFF"/>
<path d="M16.4234 30.4124C16.461 30.4155 16.5017 30.4186 16.5487 30.4218C16.5048 30.4218 16.461 30.4186 16.4234 30.4124Z" fill="#3ABAFF"/>
<path d="M51.3204 9.41797C51.3392 9.43362 51.3486 9.45554 51.358 9.48058C51.3517 9.45867 51.3392 9.43675 51.3204 9.41797Z" fill="#3ABAFF"/>
<path d="M51.3612 9.49927C51.3643 9.52466 51.3675 9.55323 51.358 9.5818C51.3675 9.55006 51.3675 9.52466 51.3612 9.49927Z" fill="#3ABAFF"/>
<path d="M16.8714 30.406C16.8275 30.4154 16.7837 30.4185 16.7367 30.4217C16.7837 30.4217 16.8307 30.4123 16.8714 30.406Z" fill="#3ABAFF"/>
<path d="M17.0124 30.3591C16.9842 30.3779 16.9435 30.3904 16.8996 30.3998C16.9435 30.3904 16.9811 30.3779 17.0124 30.3591Z" fill="#3ABAFF"/>
<path d="M51.1324 9.3584C51.17 9.3584 51.2013 9.36467 51.2295 9.37093C51.2013 9.36154 51.1669 9.3584 51.1324 9.3584Z" fill="#3ABAFF"/>
<path d="M16.5894 30.4221C16.6302 30.4221 16.6709 30.4221 16.7116 30.4221C16.721 30.4221 16.7273 30.4221 16.7367 30.4221C16.7837 30.4221 16.8306 30.4127 16.8714 30.4064C16.8808 30.4064 16.8902 30.4033 16.8996 30.4002C16.9435 30.3908 16.9811 30.3782 17.0124 30.3595C20.2176 28.3342 49.2744 10.0035 50.9506 9.38998C51.0164 9.3712 51.076 9.3618 51.1293 9.3618C51.1669 9.3618 51.1982 9.36805 51.2264 9.37431C51.2326 9.37431 51.2421 9.37745 51.2483 9.38058C51.2765 9.38997 51.2984 9.40249 51.3172 9.41814C51.336 9.43379 51.3454 9.45571 51.3548 9.48075C51.3548 9.48701 51.358 9.49327 51.358 9.49953C51.3611 9.52457 51.3642 9.55275 51.3548 9.58092C50.6843 11.9317 25.4468 34.3442 25.4468 34.3442C25.4468 34.3442 25.3465 34.4601 25.287 34.6009C25.2525 34.6792 25.2307 34.7668 25.2463 34.8482C25.2777 35.0016 25.3278 35.1581 25.5095 35.2771C26.9163 36.2161 30.4975 38.6202 34.4296 41.3247C34.6457 41.4749 34.8651 41.6252 35.0844 41.7754C39.9314 45.1185 45.1481 48.8185 47.3977 50.753C47.523 50.8594 47.6452 50.9564 47.7643 51.0441C47.7737 51.0504 47.7862 51.0597 47.7956 51.066C47.9084 51.1474 48.0212 51.2225 48.1308 51.2882C48.1465 51.2976 48.1621 51.307 48.1747 51.3164C48.2812 51.379 48.3846 51.4354 48.488 51.4854C48.5037 51.4948 48.5225 51.5011 48.5381 51.5105C48.6384 51.5574 48.7386 51.5981 48.8358 51.6357C48.8514 51.642 48.8671 51.6482 48.8828 51.6545C48.9799 51.6889 49.077 51.7202 49.171 51.7421C49.1836 51.7453 49.1992 51.7484 49.2118 51.7515C49.3058 51.7766 49.3997 51.7953 49.4937 51.811C49.5031 51.811 49.5126 51.811 49.5219 51.8141C49.6159 51.8298 49.7099 51.8392 49.8008 51.8454C49.8008 51.8454 49.8008 51.8454 49.8039 51.8454C49.8948 51.8517 49.9857 51.8548 50.0734 51.8548C50.0797 51.8548 50.0859 51.8548 50.0953 51.8548C50.1486 51.8548 50.2018 51.8548 50.252 51.8548C52.3888 51.7734 52.9841 49.4289 52.9841 49.4289C52.9841 49.4289 62.9506 9.35555 63.2827 3.98718C63.314 3.4613 63.361 3.12636 63.3642 2.76325C63.3704 2.26241 63.3234 1.75845 63.242 1.52055C63.0164 0.869462 62.7501 0.691027 62.3334 0.531385C62.2331 0.493822 62.1235 0.468796 62.0107 0.450015C61.995 0.450015 61.9793 0.443745 61.9668 0.440615C61.9261 0.434355 61.8822 0.431231 61.8415 0.428101C61.8164 0.428101 61.7945 0.421834 61.7694 0.421834C61.7256 0.421834 61.6817 0.418701 61.6347 0.418701C61.6127 0.418701 61.5877 0.418701 61.5658 0.418701C61.5658 0.418701 61.5595 0.418701 61.5563 0.418701C61.4968 0.418701 61.4373 0.418707 61.3778 0.424968C61.359 0.424968 61.3402 0.424971 61.3214 0.428101C61.2775 0.428101 61.2305 0.434352 61.1867 0.437482C61.1679 0.437482 61.149 0.440618 61.1302 0.443748C61.0707 0.450009 61.0112 0.456272 60.9517 0.465662C60.9517 0.465662 60.9517 0.465662 60.9485 0.465662C60.889 0.475053 60.8326 0.484433 60.7762 0.493824C60.7605 0.493824 60.7418 0.500094 60.7261 0.503224C60.6854 0.509484 60.6446 0.518877 60.6039 0.525138C60.5882 0.525138 60.5726 0.531388 60.5569 0.534519C60.5068 0.543909 60.4566 0.556442 60.4065 0.565832C60.4065 0.565832 60.4065 0.565832 60.4034 0.565832C60.3564 0.575223 60.3125 0.587736 60.2686 0.597127C60.2561 0.600257 60.2436 0.603397 60.231 0.606527C60.2028 0.612788 60.1715 0.622181 60.1464 0.628441C60.1339 0.628441 60.1245 0.634692 60.112 0.637822C60.043 0.656603 59.9835 0.675376 59.9428 0.687897C59.9365 0.687897 59.9303 0.691034 59.9271 0.694164C59.9146 0.697294 59.9021 0.703564 59.8927 0.703564C59.8895 0.703564 59.8833 0.703567 59.8833 0.706697C59.877 0.706697 59.8707 0.709811 59.8707 0.709811C59.8707 0.709811 5.18163 20.3489 2.05788 22.5245C1.38425 22.994 1.15864 23.2632 1.04898 23.5856C0.506941 25.1351 2.19258 25.8175 2.19258 25.8175L16.2886 30.4064C16.2886 30.4064 16.3419 30.4127 16.414 30.4189C16.4515 30.4221 16.4954 30.4252 16.5393 30.4283C16.5518 30.4283 16.5675 30.4283 16.58 30.4283L16.5894 30.4221Z" fill="#3ABAFF"/>
<path d="M49.1742 51.742C49.0802 51.7169 48.9831 51.6887 48.8859 51.6543C48.9831 51.6887 49.0802 51.72 49.1742 51.742Z" fill="#3ABAFF"/>
<path d="M50.0796 51.8578C49.9919 51.8578 49.901 51.8578 49.8102 51.8484C49.901 51.8546 49.9919 51.8578 50.0796 51.8578Z" fill="#3ABAFF"/>
<path d="M49.4969 51.8107C49.406 51.795 49.312 51.7763 49.2149 51.7512C49.3089 51.7763 49.4029 51.795 49.4969 51.8107Z" fill="#3ABAFF"/>
<path d="M49.8039 51.8484C49.7131 51.8422 49.6191 51.8297 49.5251 51.8171C49.6191 51.8328 49.7131 51.8422 49.8039 51.8484Z" fill="#3ABAFF"/>
<path d="M16.9005 30.3999C16.9005 30.3999 16.8811 30.4031 16.8714 30.4063C16.8811 30.4063 16.8908 30.4031 16.9005 30.3999Z" fill="#3ABAFF"/>
<path d="M51.2518 9.38038C51.2518 9.38038 51.239 9.37402 51.2295 9.37402C51.2359 9.37402 51.2454 9.3772 51.2518 9.38038Z" fill="#3ABAFF"/>
<path d="M60.5695 0.527955C60.5695 0.527955 60.6008 0.521685 60.6164 0.518555C60.6008 0.521685 60.5851 0.524824 60.5695 0.527955Z" fill="#3ABAFF"/>
<path d="M60.7386 0.496685C60.7543 0.496685 60.7731 0.490435 60.7888 0.487305C60.77 0.487305 60.7543 0.493555 60.7386 0.496685Z" fill="#3ABAFF"/>
<path d="M61.8478 0.427734C61.8916 0.430865 61.9324 0.433988 61.9731 0.440248C61.9324 0.433988 61.8885 0.430865 61.8478 0.427734Z" fill="#3ABAFF"/>
<path d="M60.1277 0.634433C60.1277 0.634433 60.1503 0.627985 60.1632 0.624756C60.1503 0.627985 60.1406 0.631204 60.1277 0.634433Z" fill="#3ABAFF"/>
<path d="M60.2467 0.602906C60.2467 0.602906 60.2718 0.596636 60.2843 0.593506C60.2718 0.596636 60.2593 0.599776 60.2467 0.602906Z" fill="#3ABAFF"/>
<path d="M59.9428 0.6874C59.9428 0.6874 59.9522 0.684283 59.9585 0.681152C59.9522 0.681152 59.946 0.68427 59.9428 0.6874Z" fill="#3ABAFF"/>
<path d="M59.8958 0.703813C59.8958 0.703813 59.9031 0.703809 59.9067 0.700195C59.8994 0.700195 59.8994 0.700199 59.8958 0.703813Z" fill="#3ABAFF"/>
<path d="M61.641 0.415283C61.6848 0.415283 61.7318 0.415286 61.7757 0.418417C61.7318 0.418417 61.688 0.415283 61.641 0.415283Z" fill="#3ABAFF"/>
<path d="M51.358 9.48047C51.358 9.48047 51.3612 9.49316 51.3612 9.49951C51.3612 9.49316 51.3612 9.48682 51.358 9.48047Z" fill="#3ABAFF"/>
<path d="M61.3308 0.421346C61.3496 0.421346 61.3684 0.421343 61.3872 0.418213C61.3684 0.418213 61.3496 0.418216 61.3308 0.421346Z" fill="#3ABAFF"/>
<path d="M61.1397 0.437156C61.1585 0.437156 61.1773 0.434038 61.1961 0.430908C61.1773 0.430908 61.1585 0.434025 61.1397 0.437156Z" fill="#3ABAFF"/>
<path d="M31.2056 41.4871L31.1084 41.4213L31.0176 41.3587L30.5696 41.0519L30.4944 41.0019L30.3628 40.9111L29.8583 40.5699L29.7643 40.5042L29.1628 40.0972L29.0782 40.0409L29.0437 40.019L28.5643 39.6966L28.5173 39.6652L28.4108 39.5933L28.016 39.3272L27.944 39.2802L27.8468 39.2145L27.333 38.867L27.3079 38.8514L26.8975 38.5759L26.8567 38.5478L26.8474 38.5415L26.0077 47.447C26.0954 47.3625 26.1894 47.2717 26.2865 47.1747C28.3325 45.1306 30.3377 43.3057 31.876 41.9535L31.8353 41.9253L31.1993 41.4902L31.2056 41.4871Z" fill="#3ABAFF"/>
<path d="M18.0432 32.0182L23.1816 46.2232L24.0839 36.6321C23.6985 36.269 23.4447 35.7995 23.3319 35.2298C23.238 34.7665 23.2912 34.297 23.4886 33.8337C23.6515 33.4487 23.8803 33.1638 23.9743 33.0605L24.015 33.0136L24.0557 32.9666L24.1027 32.9259L24.1497 32.8852C24.4035 32.6599 30.463 27.2727 36.6102 21.607C38.0609 20.2704 39.3988 19.0245 40.6238 17.8757C33.8374 22.0828 25.2118 27.495 18.0557 32.015C18.0526 32.015 18.0463 32.0213 18.0432 32.0244V32.0182Z" fill="#3ABAFF"/>
</svg>
